<?xml version="1.0" standalone="no"?><!DOCTYPE svg PUBLIC "-//W3C//DTD SVG 1.1//EN" "http://www.w3.org/Graphics/SVG/1.1/DTD/svg11.dtd"><svg t="1515660891502" class="icon" style="" viewBox="0 0 1024 1024" version="1.1" xmlns="http://www.w3.org/2000/svg" p-id="4800" xmlns:xlink="http://www.w3.org/1999/xlink" width="200" height="200"><defs><style type="text/css"></style></defs><path d="M873.152 150.848c-199.488-199.488-522.88-199.488-722.368 0s-199.488 522.88 0 722.368 522.88 199.488 722.368 0 199.488-522.944 0-722.368zM185.408 838.592c-180.352-180.352-180.352-472.768 0-653.184s472.768-180.352 653.184 0 180.352 472.768 0 653.184-472.832 180.352-653.184 0z" fill="" p-id="4801"></path><path d="M548.48 730.048V548.352h181.952c20.224 0 36.736-16.512 36.736-36.736 0-20.224-16.512-36.736-36.736-36.736H548.48V293.184c0-20.224-16.512-36.736-36.736-36.736-20.224 0-36.736 16.512-36.736 36.736V474.88h-181.44c-20.224 0-36.736 16.512-36.736 36.736 0 20.224 16.512 36.736 36.736 36.736h181.44v181.696c0 20.224 16.512 36.736 36.736 36.736 20.224 0.064 36.736-16.512 36.736-36.736z" fill="" p-id="4802"></path></svg>