<?xml version="1.0" standalone="no"?><!DOCTYPE svg PUBLIC "-//W3C//DTD SVG 1.1//EN" "http://www.w3.org/Graphics/SVG/1.1/DTD/svg11.dtd"><svg t="1515571112416" class="icon" style="" viewBox="0 0 1024 1024" version="1.1" xmlns="http://www.w3.org/2000/svg" p-id="7743" xmlns:xlink="http://www.w3.org/1999/xlink" width="200" height="200"><defs><style type="text/css"></style></defs><path d="M724.189192 119.414717 724.189192 63.455217l-61.09752 0 0 55.959499L541.008172 119.414717 541.008172 63.455217l-60.988026 0 0 55.959499L357.907994 119.414717 357.907994 63.455217l-61.041238 0 0 55.959499c-67.436902 0-122.112152 50.139957-122.112152 111.946628l0 615.559611c0 61.86193 54.67525 111.922069 122.112152 111.922069l427.323459 0c67.434855 0 122.085546-50.060139 122.085546-111.922069l0-615.559611C846.274738 169.554674 791.62507 119.414717 724.189192 119.414717zM693.694667 735.000933 327.360258 735.000933c-16.85897 0-30.493501-12.567223-30.493501-27.980261 0-15.412015 13.634532-27.980261 30.493501-27.980261l366.335433 0c16.832364 0 30.494525 12.568247 30.494525 27.980261C724.189192 722.43371 710.528054 735.000933 693.694667 735.000933zM693.694667 567.121412 327.360258 567.121412c-16.85897 0-30.493501-12.568247-30.493501-27.980261 0-15.465227 13.634532-27.979238 30.493501-27.979238l366.335433 0c16.832364 0 30.494525 12.514012 30.494525 27.979238C724.189192 554.553165 710.528054 567.121412 693.694667 567.121412zM693.694667 399.242913 327.360258 399.242913c-16.85897 0-30.493501-12.571317-30.493501-27.979238 0-15.465227 13.634532-27.980261 30.493501-27.980261l366.335433 0c16.832364 0 30.494525 12.515035 30.494525 27.980261C724.189192 386.671597 710.528054 399.242913 693.694667 399.242913z" p-id="7744"></path></svg>