<?xml version="1.0" standalone="no"?><!DOCTYPE svg PUBLIC "-//W3C//DTD SVG 1.1//EN" "http://www.w3.org/Graphics/SVG/1.1/DTD/svg11.dtd"><svg t="1515660904852" class="icon" style="" viewBox="0 0 1024 1024" version="1.1" xmlns="http://www.w3.org/2000/svg" p-id="5051" xmlns:xlink="http://www.w3.org/1999/xlink" width="200" height="200"><defs><style type="text/css"></style></defs><path d="M814.534849 131.764999c0-73.241095-51.78748-130.742716-117.658723-130.742716h-517.803169c-65.941851 0-117.736495 57.501622-117.736495 130.742716v679.960363c0 73.242118 51.794643 130.747833 117.736495 130.747833l94.086865-0.667195L814.534849 415.8348v-284.069801zM602.71149 429.91447H273.159822c-14.139022 0-23.571858-10.426467-23.571859-26.161846 0-15.671934 9.432837-26.165939 23.571859-26.16594h329.551668c14.08274 0 23.508413 10.494005 23.508413 26.16594 0 15.735379-9.425673 26.161846-23.508413 26.161846z m0-161.426553H273.159822c-14.139022 0-23.571858-10.423397-23.571859-26.094308 0-15.734356 9.432837-26.161846 23.571859-26.161846h329.551668c14.08274 0 23.508413 10.42749 23.508413 26.161846 0 15.670911-9.425673 26.094308-23.508413 26.094308zM375.618355 1005.488391c-2.520403 7.568373 5.182023 17.59575 15.537881 15.072277l136.790456-30.147624-121.314996-118.059859-31.013341 133.135206zM956.371228 513.115404l-54.17997-52.722782c-20.718881-20.122293-54.251601-20.122293-74.906013 0l-51.588959 50.266847 121.313973 118.060883 59.361993-57.766659c15.473413-17.59882 15.473413-42.766013-0.001024-57.838289zM437.64299 839.683111l121.244388 118.059859 304.519552-296.41906-121.244388-118.061906z" fill="#5B6179" p-id="5052"></path></svg>