<?xml version="1.0" standalone="no"?><!DOCTYPE svg PUBLIC "-//W3C//DTD SVG 1.1//EN" "http://www.w3.org/Graphics/SVG/1.1/DTD/svg11.dtd"><svg t="1516686480186" class="icon" style="" viewBox="0 0 1024 1024" version="1.1" xmlns="http://www.w3.org/2000/svg" p-id="5921" xmlns:xlink="http://www.w3.org/1999/xlink" width="200" height="200"><defs><style type="text/css"></style></defs><path d="M512.697383 64.46829c-246.974951 0-447.184809 200.192462-447.184809 447.184809 0 246.957555 200.209858 447.184809 447.184809 447.184809s447.184809-200.227254 447.184809-447.184809C959.882192 264.660752 759.671311 64.46829 512.697383 64.46829zM513.837346 261.204024c31.123858 0 56.344263 25.219381 56.344263 56.335053 0 31.115672-25.220405 56.371892-56.344263 56.371892-31.115672 0-56.353472-25.25622-56.353472-56.371892C457.483874 286.423405 482.721675 261.204024 513.837346 261.204024zM562.856783 754.206344l-39.676651 0c-20.74344 0-42.260499-18.051121-42.260499-34.5724L480.919632 491.273956l-14.08274 0c-20.74344 0-37.564547-16.813944-37.564547-37.556361 0-20.74344 16.821107-37.556361 37.564547-37.556361 0 0 45.817512-0.10847 47.000454 0 19.049868 1.419326 32.861432 9.752108 32.861432 25.25622l0 237.676168 16.158005 0c20.74344 0 37.556361 16.812921 37.556361 37.556361C600.413144 737.429239 583.600223 754.206344 562.856783 754.206344z" p-id="5922"></path></svg>