<?xml version="1.0" standalone="no"?><!DOCTYPE svg PUBLIC "-//W3C//DTD SVG 1.1//EN" "http://www.w3.org/Graphics/SVG/1.1/DTD/svg11.dtd"><svg t="1523861142363" class="icon" style="" viewBox="0 0 1024 1024" version="1.1" xmlns="http://www.w3.org/2000/svg" p-id="5563" xmlns:xlink="http://www.w3.org/1999/xlink" width="200" height="200"><defs><style type="text/css"></style></defs><path d="M704 199.68h28.16c25.6 0 43.52-20.48 43.52-43.52V69.12c0-25.6-20.48-43.52-43.52-43.52h-28.16c-25.6 0-43.52 20.48-43.52 43.52V153.6c-2.56 25.6 17.92 46.08 43.52 46.08zM332.8 199.68h28.16c25.6 0 43.52-20.48 43.52-43.52V69.12c0-25.6-20.48-43.52-43.52-43.52H332.8c-25.6 0-43.52 20.48-43.52 43.52V153.6c-2.56 25.6 17.92 46.08 43.52 46.08z m637.44 23.04v-102.4c0-20.48-17.92-38.4-38.4-38.4H844.8h-46.08v56.32c0 51.2-40.96 92.16-92.16 92.16h-5.12c-51.2 0-92.16-40.96-92.16-92.16V81.92h-171.52v56.32c0 51.2-40.96 92.16-92.16 92.16h-5.12c-51.2 0-92.16-40.96-92.16-92.16V81.92H181.76h10.24-99.84c-20.48 0-38.4 17.92-38.4 38.4v839.68c0 20.48 17.92 38.4 38.4 38.4H186.88h-12.8H934.4c20.48 0 38.4-17.92 38.4-38.4V230.4c-2.56-2.56-2.56-5.12-2.56-7.68z m-56.32 660.48c0 53.76-5.12 58.88-58.88 58.88H168.96c-53.76 0-58.88-5.12-58.88-58.88V317.44h801.28v565.76z m-583.68-5.12c7.68 5.12 17.92 5.12 28.16 5.12h368.64c10.24 0 17.92-7.68 17.92-17.92 0-10.24-7.68-17.92-17.92-17.92H358.4c-10.24 0-17.92-2.56-23.04-10.24-5.12-5.12-7.68-12.8-7.68-23.04V537.6c0-10.24-7.68-17.92-17.92-17.92-10.24 0-17.92 7.68-17.92 17.92v276.48c0 7.68 2.56 17.92 5.12 25.6 5.12 17.92 17.92 30.72 33.28 38.4zM307.2 483.84c10.24 0 20.48-7.68 20.48-17.92v-58.88c0-10.24-7.68-17.92-17.92-17.92-10.24 0-17.92 7.68-17.92 17.92v58.88c-2.56 10.24 5.12 17.92 15.36 17.92zM629.76 742.4c10.24 0 17.92-7.68 17.92-17.92v-140.8c0-10.24-7.68-17.92-17.92-17.92-10.24 0-17.92 7.68-17.92 17.92v140.8c0 10.24 7.68 17.92 17.92 17.92z m-250.88-204.8c7.68 5.12 20.48 2.56 25.6-7.68l5.12-7.68c2.56 0 5.12 2.56 7.68 2.56h294.4l5.12 5.12c5.12 10.24 15.36 12.8 25.6 7.68 7.68-5.12 12.8-15.36 7.68-25.6l-48.64-84.48c-7.68-12.8-17.92-23.04-28.16-28.16-10.24-5.12-25.6-7.68-43.52-7.68h-135.68c-17.92 0-30.72 2.56-43.52 10.24-10.24 5.12-20.48 15.36-28.16 28.16l-51.2 81.92c-2.56 5.12-2.56 10.24 0 15.36 0 2.56 2.56 7.68 7.68 10.24z m74.24-92.16c5.12-5.12 7.68-10.24 15.36-12.8 5.12-2.56 12.8-5.12 23.04-5.12h135.68c17.92 0 30.72 5.12 38.4 17.92l23.04 40.96H430.08l23.04-40.96z m104.96 376.32c10.24 0 17.92-7.68 17.92-17.92V614.4c0-17.92-5.12-30.72-15.36-40.96-10.24-12.8-23.04-17.92-40.96-17.92h-89.6c-7.68 0-15.36 2.56-23.04 5.12-20.48 10.24-35.84 30.72-35.84 53.76v189.44c0 10.24 7.68 17.92 17.92 17.92 10.24 0 17.92-7.68 17.92-17.92v-33.28H537.6v33.28c2.56 10.24 10.24 17.92 20.48 17.92zM409.6 614.4c0-5.12 2.56-12.8 7.68-15.36 5.12-5.12 10.24-5.12 15.36-5.12h89.6c12.8 0 17.92 10.24 17.92 20.48v30.72H409.6V614.4z m0 120.32v-51.2h130.56v51.2H409.6z m197.12 66.56c0 10.24 7.68 17.92 17.92 17.92h46.08c10.24 0 17.92-2.56 25.6-5.12 17.92-7.68 30.72-20.48 38.4-38.4 5.12-7.68 5.12-17.92 5.12-25.6v-174.08c0-10.24-7.68-17.92-17.92-17.92-10.24 0-17.92 7.68-17.92 17.92v174.08c0 7.68-2.56 17.92-10.24 23.04-5.12 5.12-12.8 10.24-23.04 10.24h-46.08c-10.24 0-17.92 7.68-17.92 17.92z" fill="#d81e06" p-id="5564"></path></svg>