<?xml version="1.0" standalone="no"?><!DOCTYPE svg PUBLIC "-//W3C//DTD SVG 1.1//EN" "http://www.w3.org/Graphics/SVG/1.1/DTD/svg11.dtd"><svg t="1518164767939" class="icon" style="" viewBox="0 0 1024 1024" version="1.1" xmlns="http://www.w3.org/2000/svg" p-id="2234" xmlns:xlink="http://www.w3.org/1999/xlink" width="200" height="200"><defs><style type="text/css"></style></defs><path d="M285.288273 524.876761l20.142739-20.11204-32.797954-32.796931-20.11204 20.142739zM212.251913 451.841424l31.153503 31.151456 20.111016-20.141716-31.138153-31.139176zM144.979831 559.662997l40.128912-40.129936 15.3813 15.3813-40.129936 40.129936zM120.360131 535.043298l40.128913-40.128913 15.63201 15.63201-40.128913 40.128912zM540.18847601 150.530238l-33.72302201 33.737348 8.852613 8.84852001 33.736325-33.72199901z" fill="#ff8615" p-id="2235"></path><path d="M0.001023 457.229125L0.001023 1018.593879l1018.57239-1018.571366L457.207636 0.022513 0.001023 457.229125z m409.964706-235.745976c14.286364-2.600218 27.473697-3.807719 39.157796-3.54063601l0.016373 13.32855001c-11.00974-0.671288-24.072231 0.143263-39.454554 2.741435l0.280385-12.529349zM72.081617 583.2993L182.115576 693.348608l-9.523902 9.523902-119.429947-119.430971 41.758014-41.756991 7.8948 7.89173c8.159835 16.322741 15.913419 33.865261 23.525786 52.926367 20.691231 3.258204 36.323241 9.367336 46.659646 18.624154 5.84307301 5.842049 8.569158 11.55925501 8.443291 16.870209-0.689708 6.936986-5.858422 15.362881-15.507167 25.31043l-13.187333-6.672973c2.443653-1.912557 4.479007-3.414769 5.825676-4.762462 4.77678899-5.308907 7.487524-9.39701101 8.176208-12.245893 0.407275-2.850928-0.68766101-5.861492-3.538589-8.711397-9.241469-9.240446-24.481553-14.955605-45.42247-16.85179-7.769956-20.550015-15.522516-38.374967-23.277123-53.190379l-22.430849 22.426756z m213.677377 3.965307c-36.996575 8.158812-70.73597001 1.896184-100.776117-18.907609l-15.662709 15.632009 46.51843 46.517407c5.718229-10.602465 10.762101-21.895661 15.09989101-33.596132l11.29319599 6.938009c-5.56064 14.002908-13.736849 30.32360199-24.60742 49.089996l-10.744704-6.109132c1.206477-2.583846 1.221826-4.76246201-0.156566-6.109132L101.466848 535.435223l59.301558-59.301558 58.203552 58.203552-25.155911 25.170237c9.648745 6.40589 19.862353 11.15198 30.606034 14.019281 2.850928-10.213609 3.790322-22.054273 2.568496-35.52403899l12.782105-1e-8c1.094937 13.626332-0.12689 26.267221-3.916189 37.965645 14.81643599 2.319833 30.32360199 1.505282 46.770164-2.725061l3.132337 14.021327z m37.90527-64.26663499l-9.116626-9.11662501-20.142739 20.112039 12.373806 12.372783-9.523901 9.522878L193.753625 452.387869l39.158819-39.189519 100.274698 100.27469799-9.522878 9.52492402z m-30.62240701-88.84130801c21.222326 4.35314 38.922436 8.990759 52.92432001 14.002908l-2.457979 13.878064c-14.958675-5.435797-32.783628-10.478645-53.458486-14.816435l2.99214499-13.064537z m103.64341801 41.632147l-23.793892 23.790822-11.559256-7.47012699c8.161882-7.61134401 15.913419-14.831785 23.120558-22.03892401 3.945865-3.944841 3.805672-8.158812-0.390903-12.387109l-73.603271-73.586899-47.066922 47.067945-9.381662-9.380638 47.067945-47.067945-23.949434-23.948411 9.914804-9.933223 23.96376 23.967853 16.72899301-16.744342 9.38063899 9.38166199-16.743319 16.73001601 76.059203 76.057157c8.552785 8.550738 8.692977 17.119896 0.252757 25.562163z m60.06801399-57.342952l-77.26568098-77.26568c1.783621 11.276823 2.724038 22.867801 2.86525398 34.410683l-12.63986499-6.938009c-1.629102-31.011263-9.679444-60.256302-23.963761-87.870192l12.935601-4.74609c6.53278 13.048164 11.686145 26.64482 15.63201 40.380646l92.224356 92.241752-9.78791401 9.78689z m90.45199101-94.807178l-16.852813 16.853837c-7.220441 7.219418-14.566749 6.954382-22.05222699-0.533142l-68.542004-68.542004-8.58246 8.552784c33.32905 39.31333801 49.118648 77.939015 47.61541299 115.623252l-13.472836 0.941441c1.629102-34.803632-12.779035-70.452515-43.509913-107.168705l-27.49006999 27.473698-9.52390101-9.52185499 28.020142-28.02321201c-2.583846-2.865254-5.16769099-5.715159-7.89173-8.442268l-24.622769-24.622769 9.397012-9.367336 24.622769 24.62277c2.724038 2.726085 5.294581 5.561664 7.894799 8.427941l45.686483-45.706949 9.523901 9.524925-28.288248 28.288248 66.787036 66.787035c2.709712 2.727108 5.310954 2.850928 8.020666 0.141217l11.825314-11.824292c1.504259-1.506305 1.911534-3.557009 1.504259-6.139831-0.814551-3.258204-7.203045-11.27887001-19.327165-24.215493l11.716844-5.985312c13.469766 15.38232299 20.797654 25.720776 21.894638 30.60808099 0.566911 4.352117-0.951674 8.566088-4.35314 12.24793901z m18.986404-34.490501c-2.036377-14.002908-6.391564-27.332481-13.189381-39.59577l10.602465-7.048526c8.161882 14.67522 13.45544 29.226619 15.91341901 43.651129l-13.32650301 2.993167z m95.071191-85.269973c-0.262989 4.07275499-2.724038 8.425895-7.483431 13.188357l-35.899592 35.899592c-8.020666 8.019643-15.788576 8.17518501-23.39992 0.54746801l-23.808218-23.79082201 9.52083101-9.524924 21.771841 21.756491c2.992144 2.993168 6.264674 2.709712 9.80633399-0.829901l31.264019-31.264019c2.600218-2.600218 3.680829-5.043871 3.537566-7.360634-0.12382-2.851952-3.537566-8.145509-10.195189-15.913419l11.825315-6.109132c9.115603 11.00974 13.344923 18.764347 13.060444 23.400943z m-67.067422 5.825676l2.867301-11.825315c13.203707-0.674358 24.072231-0.392949 32.641389 0.532119l-2.17657 12.515022c-9.11662601-1.221826-20.268606-1.753945-33.33212-1.221826z m92.381945-46.111154l-2.600219 12.9356c-13.18938-3.132337-28.961583-5.308907-47.458847-6.669903l2.582822-12.109793c19.032453 1.08061 34.944848 3.134384 47.476244 5.844096z m-96.453676-93.431856l-55.353647 55.35467 7.75460701 7.753583 43.11900999-43.12208 39.441251 39.456601-6.39054 6.38951799c14.689546-1.094937 26.6571-1.362019 36.179977-0.56486499l-2.160197 12.25101c-5.043871-0.660032-10.495018-0.940417-16.337067-1.081634-21.507828 24.762962-53.741941 59.97387001-96.703362 105.14665401l-9.914804-7.48752401c18.747974-19.310792 35.743026-36.869685 51.12535-53.033814l-8.709351-8.709351-43.10673 43.105707-39.454555-39.440228 43.119011-43.104684-7.76791-7.769956-55.353647 55.36694999-8.442268-8.44226799 55.37002-55.352623-9.115602-9.114579 9.804286-9.788938 9.100253 9.100253 55.353647-55.35467 8.442268 8.442268z" fill="#ff8615" p-id="2236"></path><path d="M574.618602 165.362023l33.735302-33.721999-9.11355601-9.115602-33.72302198 33.737348zM581.978213 172.709354l8.427941 8.44022099a7239.718343 7239.718343 0 0 0 32.09392-34.55189899c-3.665479 0.141216-7.223511 0.141216-10.729354 0.42160201l1.345646-5.44910001-31.138153 31.139176zM555.727365 166.066057l-33.738372 33.723022 9.09923 9.09923 33.723022-33.736325zM558.844353 149.589821l33.723022-33.73939499-8.835217-8.83317101-33.73734799 33.721999z" fill="#ff8615" p-id="2237"></path></svg>